<mxfile host="app.diagrams.net" modified="2021-01-27T04:20:23.986Z" agent="5.0 (Macintosh; Intel Mac OS X 10_15_4) AppleWebKit/537.36 (KHTML, like Gecko) Chrome/88.0.4324.96 Safari/537.36" etag="CIx8WOzoY8enm19aG4ED" version="14.2.7" type="github">
  <diagram id="C5RBs43oDa-KdzZeNtuy" name="Page-1">
    <mxGraphModel dx="1773" dy="614" grid="1" gridSize="10" guides="1" tooltips="1" connect="1" arrows="1" fold="1" page="1" pageScale="1" pageWidth="827" pageHeight="1169" math="0" shadow="0">
      <root>
        <mxCell id="WIyWlLk6GJQsqaUBKTNV-0" />
        <mxCell id="WIyWlLk6GJQsqaUBKTNV-1" parent="WIyWlLk6GJQsqaUBKTNV-0" />
        <mxCell id="WIyWlLk6GJQsqaUBKTNV-2" value="" style="rounded=0;html=1;jettySize=auto;orthogonalLoop=1;fontSize=11;endArrow=block;endFill=0;endSize=8;strokeWidth=1;shadow=0;labelBackgroundColor=none;edgeStyle=orthogonalEdgeStyle;" parent="WIyWlLk6GJQsqaUBKTNV-1" source="WIyWlLk6GJQsqaUBKTNV-3" target="WIyWlLk6GJQsqaUBKTNV-6" edge="1">
          <mxGeometry relative="1" as="geometry" />
        </mxCell>
        <mxCell id="WIyWlLk6GJQsqaUBKTNV-3" value="&lt;font style=&quot;font-size: 16px&quot;&gt;输入关键字&lt;/font&gt;" style="rounded=1;whiteSpace=wrap;html=1;fontSize=12;glass=0;strokeWidth=1;shadow=0;fillColor=#dae8fc;strokeColor=#6c8ebf;" parent="WIyWlLk6GJQsqaUBKTNV-1" vertex="1">
          <mxGeometry x="160" y="80" width="120" height="40" as="geometry" />
        </mxCell>
        <mxCell id="WIyWlLk6GJQsqaUBKTNV-4" value="Yes" style="rounded=0;html=1;jettySize=auto;orthogonalLoop=1;fontSize=11;endArrow=block;endFill=0;endSize=8;strokeWidth=1;shadow=0;labelBackgroundColor=none;edgeStyle=orthogonalEdgeStyle;" parent="WIyWlLk6GJQsqaUBKTNV-1" source="WIyWlLk6GJQsqaUBKTNV-6" target="WIyWlLk6GJQsqaUBKTNV-10" edge="1">
          <mxGeometry y="20" relative="1" as="geometry">
            <mxPoint as="offset" />
          </mxGeometry>
        </mxCell>
        <mxCell id="WIyWlLk6GJQsqaUBKTNV-5" value="No" style="edgeStyle=orthogonalEdgeStyle;rounded=0;html=1;jettySize=auto;orthogonalLoop=1;fontSize=11;endArrow=block;endFill=0;endSize=8;strokeWidth=1;shadow=0;labelBackgroundColor=none;" parent="WIyWlLk6GJQsqaUBKTNV-1" source="WIyWlLk6GJQsqaUBKTNV-6" target="WIyWlLk6GJQsqaUBKTNV-7" edge="1">
          <mxGeometry y="10" relative="1" as="geometry">
            <mxPoint as="offset" />
          </mxGeometry>
        </mxCell>
        <mxCell id="WIyWlLk6GJQsqaUBKTNV-6" value="&lt;font style=&quot;font-size: 16px&quot;&gt;&lt;b&gt;是否是URL?&lt;/b&gt;&lt;/font&gt;" style="rhombus;whiteSpace=wrap;html=1;shadow=0;fontFamily=Helvetica;fontSize=12;align=center;strokeWidth=1;spacing=6;spacingTop=-4;fillColor=#fff2cc;strokeColor=#d6b656;" parent="WIyWlLk6GJQsqaUBKTNV-1" vertex="1">
          <mxGeometry x="155" y="170" width="130" height="80" as="geometry" />
        </mxCell>
        <mxCell id="WIyWlLk6GJQsqaUBKTNV-7" value="&lt;font style=&quot;font-size: 16px&quot;&gt;搜索引擎合成新的带搜索关键字的 URL&lt;/font&gt;" style="rounded=1;whiteSpace=wrap;html=1;fontSize=12;glass=0;strokeWidth=1;shadow=0;fillColor=#e1d5e7;strokeColor=#9673a6;" parent="WIyWlLk6GJQsqaUBKTNV-1" vertex="1">
          <mxGeometry x="560" y="190" width="290" height="40" as="geometry" />
        </mxCell>
        <mxCell id="WIyWlLk6GJQsqaUBKTNV-8" value="&lt;font style=&quot;font-size: 16px&quot;&gt;&lt;b&gt;通过IPC将带协议的URL交给网络进程&lt;/b&gt;&lt;/font&gt;" style="rounded=0;html=1;jettySize=auto;orthogonalLoop=1;fontSize=11;endArrow=block;endFill=0;endSize=8;strokeWidth=1;shadow=0;labelBackgroundColor=none;edgeStyle=orthogonalEdgeStyle;" parent="WIyWlLk6GJQsqaUBKTNV-1" source="WIyWlLk6GJQsqaUBKTNV-10" target="WIyWlLk6GJQsqaUBKTNV-11" edge="1">
          <mxGeometry x="0.3333" y="20" relative="1" as="geometry">
            <mxPoint as="offset" />
          </mxGeometry>
        </mxCell>
        <mxCell id="WIyWlLk6GJQsqaUBKTNV-10" value="&lt;b style=&quot;font-size: 16px&quot;&gt;根据规则&lt;br&gt;把内容加上协议&lt;/b&gt;" style="rhombus;whiteSpace=wrap;html=1;shadow=0;fontFamily=Helvetica;fontSize=12;align=center;strokeWidth=1;spacing=6;spacingTop=-4;fillColor=#fff2cc;strokeColor=#d6b656;" parent="WIyWlLk6GJQsqaUBKTNV-1" vertex="1">
          <mxGeometry x="142.5" y="330" width="155" height="90" as="geometry" />
        </mxCell>
        <mxCell id="WIyWlLk6GJQsqaUBKTNV-11" value="网络进程" style="rounded=1;whiteSpace=wrap;html=1;fontSize=12;glass=0;strokeWidth=1;shadow=0;fillColor=#f8cecc;strokeColor=#b85450;" parent="WIyWlLk6GJQsqaUBKTNV-1" vertex="1">
          <mxGeometry x="160" y="510" width="120" height="40" as="geometry" />
        </mxCell>
        <mxCell id="QzUTH_ZqcAfX9e_XdB7s-0" value="" style="edgeStyle=orthogonalEdgeStyle;rounded=0;html=1;jettySize=auto;orthogonalLoop=1;fontSize=11;endArrow=block;endFill=0;endSize=8;strokeWidth=1;shadow=0;labelBackgroundColor=none;exitX=0.5;exitY=1;exitDx=0;exitDy=0;" edge="1" parent="WIyWlLk6GJQsqaUBKTNV-1" source="WIyWlLk6GJQsqaUBKTNV-7">
          <mxGeometry y="10" relative="1" as="geometry">
            <mxPoint as="offset" />
            <mxPoint x="295" y="220" as="sourcePoint" />
            <mxPoint x="300" y="380" as="targetPoint" />
            <Array as="points">
              <mxPoint x="705" y="380" />
            </Array>
          </mxGeometry>
        </mxCell>
        <mxCell id="QzUTH_ZqcAfX9e_XdB7s-2" value="" style="shape=image;verticalLabelPosition=bottom;labelBackgroundColor=#ffffff;verticalAlign=top;aspect=fixed;imageAspect=0;image=data:image/png,iVBORw0KGgoAAAANSUhEUgAAAvQAAACKCAYAAADFa96OAAAgAElEQVR4Ae2dh7vcxPX+v3/KDxO6qcb03nsPLZRgMJjeMQaDAWOD6Z1AEiChhBq66b2GXhNa6B1Cx/e6zu/5aH2Ws3MlrbR9fV89j3ak0cyZ0ehd6Z0zZ8783+iVVgva1QbCgDAgDAgDwkBxDKw4etWw0IhFw/9b6Hfa1QbCgDDQdQz8n17gxV/gaiu1lTAgDAgDwoBhYOTSy3f9I64OhTpUwoAwAAZE6DVCoREaYUAYEAaEgQYwUNHSLyJSL+2sMCAMdB0DIvQNvMRNO6NQmjphQBgQBoY3BhZdbKmuf8iloZWGVhgQBkToReilmRMGhAFhQBhoEANLLyOzG5FJkUlhoPsYEKFv8CUurdzw1srp+ev5CwPCABhYbvnR0tDL3EIYEAa6jgERehF6aeaEAWFAGBAGGsTACqNW7vqHXNrR7mtH9Qz0DLqNARH6Bl/i0s5JOycMCAPCgDDAxNhuf8hVvsikMCAMiNCL0EszJwwIA8KAMNAEBkSmRKaEAWGg2xgQoW/iJS7tnLRzwoAwIAwIA93+kKt8kUlhQBgoTOhDnW3evBBsnzM3hFlzQiC0OAsRY8eE/rxylv6rj6Y+msKAMCAMCAO9iAGRKZEpYUAY6DYGWkLojZgbOfeU3F+z6xB9trnzCX8SP5/oV64M/e3Fl7jqJHIhDAgDwoAw0O0PucoXmRQGhIGWEPqEkM8LYe58jfvT78wJf354ViBkI9608kbVLa3lDfPz2vU41EdTH01hQBgQBoSBXsSAyJTIlDAgDHQbAy0h9JB1tO1sVz02K6x34kBYZ+JAWPfEgXD1E7OSeDO/Ibzy0Vlh3OWD4cL7ZoZfBytM3rT1sUa/IjUsUBO2ttxq27D6Gmu37Z5WXW2ttsnuxY+p6iSSJwwIA93EQLc/5CpfZFIYEAZaQujNhOajb+eGLaYOhE0nD4Stp1XCLU8bCMRD1El32u0zw9rHzwgbnzIQ1jpuRhh/7WAYmDWvqsU3Ah+H7XxZ77zLbmHGjIHw7bff1hDhs84+N4l//fU3auKbqQvlsN1yy60tkxnX5+NPPglz584NV1xxVdNlrL32+mHWrFnh119/zZT1448/JmlIG9el388///zzMG/evHDLPxt7XmDrp59+Cv95663Uttl+h53CzTf/M6y8yhrh0cceT9p54sRJqWnLtuXkyVPDnDlzwpdfftUSeWXLV3qR7OGCgX4hU7vtsVe4/a57k53jfqm36imyKgzUx0BLCD0TYNGz3/DMrEQrD4nfbMpAIERL/4+nK1r6u16anWjuiWff6vSBhNwTzzYbORmmN+38MBx08GFJ+ZAfX85f/3plEt9KQnTNNdclMiHJ7dKk//LLL0kZl13255r78feWdjxl6unhrbfertnfeefdRBY/8TU7twTvvvfekDSXXHpZqTpQr7H77p90SOiUtHLnXuL75hnk7XfdNT25vYGBgdx0yICUx/L3GTuumt9fg7R/9NHH1nThySefCtbW55xzfnL+zTffBtv/9a/nhsj28tKO6ZCy/fTTz6XzpslTnAi6MJCOgX4hG5D5hx97Ktk57pd6q571yZzaSG1UitBDtv2OHTymMrNmV+KvfGxWQtC3PH0gbD51IBCijccMh3wHXTEYNjxpINHiG+Fff9JAmHzLzOS6md1UWY47aOeHpFWEfr31Nw6/zphRd7fbmjlzZm5aiDky7d6feuqZ8MEHH9Td0Siz/e9//6ub1hPFBx98yKrWsvCFF16s1t/uo1544EGHtqx8Lwhy7MtGg93KberUaTXyKSuN0O+40641xdIROviQw8O771Y6TxD6H374oSYNz9LXnWM6bK3Y6FzGsnWeTtzULmqXNAz0C5kyMm9hv9Rb9RRZFQbqY6AUoTfyYKTeziH0kPuE0E+saN4h9KaB//vjFQ399mcOhE0mD4TNp8wn/KcNJPb2Cwqh32jjzaxJWhYi0z4gaIlbvSHT5G+9zfbhkEOPqNmPO/6EpEg6CZBO9hdffCk8+6/nwrETJibn1oEYP/64ahpLi0mJyS8aou2mLvX277+vkN7b77izblpkbbzJFjV18YSe0Zlm96OOGl8jn/vNI/R06KiXtYtp6M8++7ykI0d9x+1/UNL+aYT+0j9dHmbPnp25M7phW146TKasDgpFWHsVA5tsWvv/LVLPRvIUkRun6ReyYUTewn6pt+pZn8ypjdRGhQm9kXgLIQr//WpueOPjOVUzmYffmB3QuGNOk2joTxtIzh/99+wkza7nzyf0UysmORD+dU8YCLe/MDvpEMycr+m3Mghti1+grTxvlYbeCD1EarPNt25qN5LsCf2Jk04OkL28/aGHH0majDrkpbNrRxx59BAyt8GGm4Zddt0j2XfH5vKOO8Pf/nZ19dyeydix45I4bMBJQ1rLR5hmgtLK52aEFdLbiFwj9DGhPffc8xPToZNPOTVVLqYsaNXzzIkmnnBS0v433HBT0lx0FmjzM888O5iGPi7XCD0aersfbPDZ0gi9pckKZXIjcp6FjX6L5x3DRli07o3kKSo7TtcvZMqIvIX9Um/VU2RVGKiPgcKEnpcpBBulH5Nbz757Ztj01IGw2akD4ZArB8MHX88NM2bOC2MuGUxIOpNjIet7XzqYxJP/+OsHw9rzNfiQfrzh7HHRQPhlvqeb5I093z99Up7zTR+/QFt53gihxxYeUwU0sFYXT+jRTEPcGt3TCL2VkxfeceddSTM2Y/f//vsf2KNoKmxEO593b/7aH3bbM6kb7dRoxyGL0D/++JOJ7Ecffaz6bH3Z993/QHKdUQof749t8nNaAzJHgI26Y2bDTsfKE3o6AsR//HHFzj4m9HhKQkOftz/zzLNJOTNnzspNhww6Gr7+OlZnoFcwgJbdb0VIvZF5y9duTX2/kA0j8hb2S71Vz/pkTm2kNipM6CHzs+eP4N/zyuyEmGMHD3HHTn7/Pw8GNOzvfz037HvZYGJWQwjRZyP/W5/NDTudOxA2OGkgbDBpIOx87kB445OKr/oPv5kb3v9qbuLxhvSJn/oWa+i3227HgH12vNvk1yKTYjFJQbNqGzbt9uFbfY11Ah5m0N4iq5kN7fPnX3wR1l1vo6p8ykF7/MYbb2buRiQJ89JxLUvDjHecF158KXW3jsbX33yTet3n23CjTWvqbu1UJjzq6GPD3dPvGbLjNYaNdkq7bnGMHMRtaOUboUcGE1RtN9MmOmwW50PmSbCRzsfTeTPZTzzxZIKF7777LklLu4EN9r322ieJ8z/XX39jDaEHQ36LCf1VV/3dX276GNJvdVcoMt9rGIgJeh6pL5O2VffZL2TKiLyF/VJv1VNkVRioj4HChB7NvE2CPerqwYSUQ+a9ac1Dr1e81UDsP/1ubuK1BqaBFxzrDHz3y7xw36uzA50CjvFDjzzkIG/3CwfCKx/OX5Bq/kqydAZa8eJlgmbelkfoTzv9jPD1119Xs0MC0YZD4tPqZoSePGjLy+6HHX5UqlwmxrZqe/mVV1PL4H4mnzo1oIn2+/33P1gtGjt6f80fM3qR1iaNxD3wQPMTdX+/4y6p9TFCX72pJg+YUxDfY54NPa5AzUSJyc9eQ29mT3jDYcsi9Mh45JFHh+x+lIXnnJaGuFdeeTWRL0IvEh9jt9fOixD1ImnacV/9QjaMyFvYL/VWPeuTObWR2qgwoYdUs2FWs9M5Qye3YkqDNxtIfxnl9J8emBnWmDAjIfRo/LHB3+GsgfDF9xXf9TavrxUv4dtuuyPxCY5fcL+bVjuL0FfuvPKLpvXZZ/8VvG17Wt2M0Ld6ASkj9Gh6//KXK6o7Nu74tvdxHD/2+BOB+/bxn376WXIzeYT+5Zdf8bdd6thPtE1rmzJxRuiZQPr008+U2q3S9Qg9ZJbJv7bjjpMNkxeL8yHrErDxDHw8JDy+tzxC34wNvWnoqWNc5j9vvS2pHz+fffZ5wDzH0sRmUHQo2EToRegNI70c5hH2vGvtvqd+IVNG5C3sl3qrniKrwkB9DJQm9L8MzAvbnjlQsZ933mog9H97rOLNZrASJEThtY/mBPzMP/POnMQkJyEPsyt2+PidP+Avg2GjkyvaefOMg+39jc9UhJhv+na+kOvZ0FNnzCxuuumWTPONuH6e0GP+UUZDjz/4WJ6dG6GHqFscpJIRAzopFmehdVaYIGlx06ffmzybPEIPOd1jzzHV/eprrk3y0KE5ZvyEarxPY8fe9MTKbDQ0Qo+JUFkZtAlbJqE/teK2MibWrbCht7rmEXrqhobddqsv5Nri7Pllaeg9od9m2x0SnCEXWZdf/pdqm+E5CDMgNhbLMneoNulWhF6E3jDb62EacU+L6+R99AvZMCJvYb/UW/WsT+bURmqjwoQebpTY0c8JYb/LB8OGJ9d6s2EBKbzVmCYfW/pDrxxM3FTie36jUwbCnhcNhFc/mm9OMy8kBJ9JtFwzV5Y2mfa86RXf9Gj7W2Vyk/WCr0foY//lWXJ8/G+Efp3wwQcfJkSq6E+WbTvy0wj9OutuWLXZ955Z8KrChstCv4prFqGnHbLcG/q6Z6VJi0/zze7bqd5xOwn9JZf8KbmteIVgI/Q8Q9YCiHfuky1vUqzdlyf0dNRwtcloSdkNEm4yCZkUDGGnc8WkYNYQsA4Btv/cG2ZiF118afj71dcmi0tZmZhOQfCRQ8gckgsuuKhGvi9LxyL7vYaBmMAbtgm51un6dptM2QqwRtRbFbL4lFaUFVHsNr5VfjEMFib0kGq827Dd+vzssNbxM6paerzV7HjOQPjqx3kJ+f7qh3lhl/Mrq8RC0Lc4raKBZzIsrirfnD8RFk3+mEtrCT3eb9DQX3hfhdD3goa+rMcYCJZtjXpgyfogxYQeV5H4fDczEDS55gPeFidioipxTMZEbhah32/cgVXNsGmIbRIs9wNRtHgf+jQ+nuM03+xZ95YW305Cf8s/b00eExNQfdm2Oqw9w6yQ1V19vrRj8yPvZfhOl8+Dtp3Nu63017OOwZiReV9OfEzHhVEUOgGmoc+SqXiR+F7HQBqp7waZp526TTj8CrCtIvMmRyvKFiNT3caAytdzKkzoIQc2MZZJruffMzNsc8ZA2O7MgcRVpU1kJR3uKSH5kHPs4jGlscmzaOv3vLjiqpKJsmMvqxB60kL+t55WIfTXP10xuaGsbmvoyxL6PzovJm+//U5odL/33vuGEMaY0DN6UHRD08zHJ4vQxx9wJrcaWccW208Axi6bSaBXXvX3xE7b6sBEy1Z2YozQQ3YxAyqzG8nNMrkxExTmRMT33sw5XnWY00Cb+Y25BbQXC0bhpjLe8WrExmTr+Fps+x7Xj5EQVo497/wLE09IeN+xjXZAS0+eG268OYnG+w4jO7EcnYvI9wsGROh/IzAi9L+1hYit2mK4YqAwoYdU225EAQ81+JBHi27bXx+dVSXzkHRP6iH3nEP2J94wmGS54tFZYbXxM8LGpwwkO9p50nz0bWVSrI0KtPMjU8/kpiyhN1MXa5NGQ8wz4vuOCT0TYdEw+93K83EcP/rY44m8eoSe9ojJKDbWmKAYwbcyLEQbb6Yo2H1Tr3oTh+N7Szs3Qm/lNBJmEfo33/x3Io5JpJtutmViW/7FF1+Gsjt+5X3dGemINyb1WkenEe86TMD1ZaQdM8H1wYcerppf0YGAwHvijivRn376OakencE111qvrty0shQn4t9NDKSRefvPdUNL320CIZMbkdhuY1Dldx+DhQm9vSwJIfaJn3gfGULi5QZijqYdUv7i+3PCfa/MTuzoiUNLb6Qe4n7BvTMTCZc9NCtZgGqfPw2Gg68YDE+/3R63lVkfoFYTejPZwOSFCav4qmfD5tq8oqAtZ4NUWhwhZO/1N94MrDSatgJqTOjT7ikRHLJdfWYResrHv7xtkHTqQf2ZcItWFxJomm/cLKKJxoQDoghxZjTCb3iMSatj0Tgj9HQk6FSU2a0eWYQeu3Q27McxRWl0S3NXSScQTfukSackYr3nH54r123DTMr7s7djW1SKdPjdT2sz7PHBlZlXmUzMaxh5eO2115POHp6NeHY8R+t4kfbDDz9KlZtWluJE4nsBAzGZ5zwtrpN17RcyY2Y0FvZLvVXP7pNFPYPefwalCL1p6PFgybFp5jGLYeVYNO9Mll1vUmXhqG9/npfYyzPplZ2VZc38ZtPJlQWpsJVnQ5b3joP80OKFpbJe8I0QemzXIV5o42O5eGRhu+eeiskMHmnYWP3T0lqZxLN4EvF4KTHtKRp1S+tDT+g332KbZKVaJl76PSkshJo4u46pTBahN/KMJv722+8M3ONuu/9xyG7aeyZepl3Hd/p//lNZ+CnrPvw95R1bndrh5QZym7T/UeMT7fnW22yfmK1Y+zHplLh4tw4b6ep1WPyk2Pg+bbI0z9xr0S0dRJ2NDhR1sHgfvvrqa1bd3JAOEUSe0RPIP6MQ1jFjQq2XqWMR917FQB5xz7vW7vvpF7JjRN7Cfqm36tn7ZFLPqPvPqBShrzIGNPTzJ8h+/dO8cMTfB5OVYzeZPBAO/OtgOO4fg+G46wbD97/OCy/8d0511VhWhoXUo6Xf46KBZEVZNPWn3DwzWXyqQl4qk2+TzsP8jgPx7Xgho1XGnzfaTDaIrC/HVpBNM7lBK8uWZhZjK8myqizy0gg98c8882wiA6KFZp5Jp2xoxjGf8HWxY0/oH330sSR9mR/yZxF6fOZD5JkwSdjoZu2I+0pW57W6NxK2i9Bzr2Y+FNun0/GyzWzPqTt48Qs2YddvZjRZ95ZH6LGlN205ox906JCDGQwLd9mWN0mWkQWusxAYmMT2fsze+wba3jqN9jyQ7etLHjYIflb9FS9y3ysYKELYi6Rpx/30C5kxIm9hv9Rb9ew+WdQz6P1nUJrQQ7Rtcuz/fpmXkPJ1Jla819z7asWdH+Y4aO3Znnp7TuKuEg08furxV4+Lyufeq/ilZxGptY+fEQ7/22DVS465yEy09BUxLSMcaEKZPGha5vnik8ATH176eYT+9GlnJnlid4KYrbCh/bQPRxahh1Sa2UeSKYTEvCVNW2uyPKG/9E+XJ/mR4XeT5ePsGPOSLEJvZRByH5BXv2Ma4jfMc/x1O0Zr7GU1c9wuQm/zHOhEpdXvH/+4oXqrmKrgStQ6XFxgQq0nx2kyiMsj9FwfO3ZcVS6YYe4B5jm2gcEs2T6eutx+x51JJ4U5AVwzH/OGa54pZTz33PNVjT8mVebC0svTsYh8L2GgDFEvk7ZV99gvZMeIvIX9Um/Vs/fJpJ5R959RY4R+vinM1NtmJi4mMaf52+MV7fItz80Ke1xY0dRDyJ+ZT+ghKFc/MSsh75jdvPQ+EyxDskgVBJ9OwUFXDCZmN3QIPJknbytevNirm1bWCBO27Ga2YMTHysoj9HiAYUOmpSdEY8+G3bnFx4Qe7TuLTaGVRUvr7anR2vuVPU2GhZ7QW1wcJhXIabMihN7LxId92mgApjUQWybb4tnH52nVcbsIPaZAbLR3Vl1x9RnjhXPuOytPHF+P0JOeEQKwF29o22N58TlEHg83LHxmG9p90sWE/r77H7AkScjCYlnzC+JydC6C3y0MbLLpFjW4hbDXq0tM6pFRL08z1/uFzBiRt7Bf6q16dp8s6hn0/jMoTejN1Objb+cmk183O7UyCfaDb+YmWvlt5rudZFIspPzZd+YkBJ/ja56YFdY5oZKeCbN4sNn2jIFk0iz+6TG/ufvlipYfjb4n9c28bC2vmdagaX366WcS7SnX0kwTiEcry4bGFG26ycEjCjbIbBBOizetPfHm+QRXj6ZxxbTBJsMmmUMI48cfl5hYmN098ZBGSFka2WoFof/XfNvsvJViuafDDjsyPP/8C1WzELS7TMJ8773/JtW/4oqraggv90ZnIa3e1kZlQyP0TIbFXr3Mbm0c18eb28QTjyHI+M5/4YUXq5pzk2Mhduh0YtCu17sf5kew+Umx5KGcAw86NOkQcW9pGySfDuMZZ5xd4zKU/JjU0MnyowZ40kHjbnWi48jmO6p0FnEt6jsQTMLOMvEyWQpF6LuJASPoRci81bORPJa3bNgvZMeIvIX9Um/Vs/fJpJ5R959RaUJvRPuJt+YkRNy81nzyv7mJzTznG508ECD2bEbo0br/9ZGKi0o0+s+/NyfxlJMQ+lMrJjsQ+nPurl1QKhGSo20u8+JlpU5PeCxvFqHfauvtrfiEuEKCPBHiol8kCNt3tldeebVKqkx2VVAIiacWCPxJJ0+uMdtA02o21ZY+Nl9plNDfeefdiZcT69QgH7MSawMfQlYhh7bRwWARJXNDaYQeTTXmQfhW93LJx0gF92dysQsvsntf9+Q1Qm91aSSMCf2ZZ56diIGYUwY26HRu6HDFGnnagdEUCO9NN90ypENGJ4d7p+Njtu6QdUyc8FJj7WjzMK6+5tpkRCYuh+fOaAEdPBYCi69zjgcha0+bPM2NQOqpo7mgZMEs1jCwUQiuWz4LSUvb+nKY4GzXFYrA9xoGGtGyN5KnkfvuFzJjRN7Cfqm36tl9sqhn0PvPoDyhn1vRnEPUmQSLJn6DSQPhrpcqmvVpd8xM4pkAC/l/8q054Y8XV8g9dvMsKrXnRQPhtY/mJOY1EHomyiJn3RMHwll3VYgk2nsbDYC0NPKSLZrHSLfXZFpeSI/XghqhhMhBvCBvlhavN8Sjwbc4QsgtmmWIb0wufTqOWZQI4gjZZIvdFTZK6HGh6De0wnRY4vI5N9eTmHHQEcCbjk/nCb2Ph/SiNTaNM5MzuW6TL335ecdephF6zJOuve76UruR1bjN0axDoM27C6M1tpGHBZ7wZIPJja+LHROPBxozr7K8rNZraYzIcw2ZF150SXLNTzYGVzxfOpoeR8hgAS1wQF3sPsCXyWf0CNt+OhFx3niug5ngWF4fYu4D8WeCr4/XsQi9MFAcA/1CdozIW9gv9VY9e59M6hl1/xmVJvRGsr/+cV6ihUcjD7Hf+byB8O9P57u+MYYTQnjj4zmJaQ4EPm3b/qxak5s/PzwrMbWxkQDL086PC15d8BeOdjSrHMw0bM+aRAixik04suQViWcS42abb11TJ+yqr7/+xsQcJksG9YvriK0+98hOByYrL/F0SLLILNcxFcGlY56tPyYhVsZhhx+VaL/RgNfbIe6Wj5C6cr/mMchfq3eMSRBeauK2IB8k3zo0dFgg8NQzJsf1ygAT+OGn4+M7DswpQB5mS6Y5RxbpmX+Bd5p6su069T9x0slVEzGLzwrBDW3Gbi5Rs9IqvjhpU1uprbIw0C9kxq8oy3G/1Fv17D5Z1DPo/WdQmtBj126kfvI/ZyaTXDGvQcu+9bSBcOqtM8N1T80K1z41K1zz5KyAxp7FptDEnzt9ZhLH5Fh2THDIw6RYFp7CVOf1jyvE31aI7QShz3pJK14fcGFAGBAGhIF6GOgXsmMrykLmOe6XequevU8m9Yy6/4waJvTYxH/z07yw3+WDYc3jZiQLSq0/aSCsMWFGWPWYGWGlIys7bipNi7/6sZU4QvLgrpKOAISfczO3ocNAx6HVk2LrvZR1XR9uYUAYEAaEgbIYEJnpPpnRM9AzGO4YKE3oTWMOoWf7Yca8RNM+4brBwM6iUhOvHwzn3TMz3PTsrPDsu3MSn/PYz+On/oJ7Z4YD/jIYdjynorVHuz/mksHwj6dmJV5vzGWlJ/OUU/YFq/T6KAsDwoAwIAx0AgPDnUjo/kWmhYHuY6A0ofeacyP1FWpf/Hf23BB+GZwXzDMO9vK2xUTe4jvxUlYZ+vgLA8KAMCAMlMWAyEz3yYyegZ7BcMdAaUIPwY5JPQTd4izEBh6iTmg76WLbeCPsxBuZNxl2jbDsC1bp9VEWBoQBYUAY6AQGhjuR0P2LTAsD3cdAYULfiZeiytDHVxgQBoQBYaDfMCAy030yo2egZzDcMSBCv5I+nv328VR9hVlhQBjoJQwMdyKh+xeZFga6jwERehF6mTMJA8KAMCAMNIGBhUYsIheQC3Wf0IhU6hkMZwyI0DfxEu8lDZHqIo2lMCAMCAPdwcDCv1tMhF6EXhgQBrqKARF6EXpp5oQBYUAYEAaawMAiiy7R1Q/5cNZK6t6llRcGKhgQoW/iJS5tWHe0YWp3tbswIAz0EgaWWHJpEXppZ4UBYaCrGBChF6GXZk4YEAaEAWGgCQwss+yorn7IpaGUlloYEAZE6Jt4ifeShkh1kcZSGBAGhIHuYGDF0auK0Es7KwwIA13FgAi9CL00c8KAMCAMCANNYmDxJUZ29WMuDa00tMLA8MaACH2TL3FpxLqjEVO7q92FAWGglzAwasVVROiloRUGhIGuYUCEXoRemjlhQBgQBoSBFmBgiSWX6drHXNrZ4a2d1fPX8xehb8FLvJe0RKqLtJbCgDAgDHQHA9jS/26RxUXqpaUVBoSBjmNAhF6EXpo5YUAYEAaEgRZhANObEQsv2vGPuTS00tAKA8MbAyL0LXqJSyPWHY2Y2l3tLgwIA72GgRVGrRy0euzwJlci13r+ncaACL0IvTRzwoAwIAwIAy3GAOY3WkFWpK7TpE7lDV/MidC3+CXea5oi1UfaS2FAGBAGuoeBkUsvHxYaIRMcEc3hSzT17Dvz7EXoReilmRMGhAFhQBhoIwbQ1uMBZ6ERi8i2XpMlhQFhoC0YEKFv40tcWrHuacXU9mp7YUAY6EUMLLvcqLDY4iMTbzgjFl6sLR92aUQ7oxFVO6udewkDIvQi9NLMCQPCgDAgDAgDwoAwIAz0MQZE6Pv44fWi9kl1klZUGBAGhAFhQBgQBoSBzmJAhF6EXj1yYUAYEAaEAWFAGBAGhIE+xoAIfR8/PPV+O9v7VXurvYUBYUAYEAaEAWGgFzEgQi9Crx65MCAMCAPCgDAgDAgDwkAfY0CEvo8fXi/2EFUnaS6EAWFAGBAGhAFhQBjoLAZE6EXo1SMXBoQBYUAYEAaEAWFAGHM/PmoAACAASURBVOhjDIjQ9/HDU++3s71ftbfaWxgQBoQBYUAYEAZ6EQMi9CL06pE3iIHllh8dRo5cLiy2xMiwyKJLBBaJ0UqQWmiklxYaUV2ER2FAGBAGhgcGROgbJHO92DtTndqvNVhm2VFh0cWXEnHX0t1a4VMYEAaEAWFAGOgZDIjQi9BLQ18HA6NGrRKWXGrZMGLEoj3zx5XGZXhoXPSc9ZyFAWFAGBAGimBAhL4OmZPWu/1a715t4xVHr5oQ+SJ/JKXRC1cYEAaEAWFAGBAGuoUBEXoRemnoUzCAaQ028d36Y6pcfRSEAWFAGBAGhAFhoCgGROhTyFyvaoxVr86MFiy+5NIi8rKLFAaEAWFAGBAGhIG+wYAIvQi9NPTzMbDCqJUTbzVFe8NKJ82JMCAMCAPCgDAgDPQCBkToRehF6FdaLSy/wmiZ2EgT0zeamF74eKgOIjHCgDAgDPQOBkToReiHPaFPyLw82IjMqkMjDAgDwoAwIAz0KQZE6EXohzWhx8xGk197R8MgbY+ehTAgDAgDwoAwUB4DIvQi9MOa0LPCq14c5V8cajO1mTAgDAgDwoAw0DsYEKEXoR+2hF7ebHrnRaSPgp6FMCAMCAPCgDDQOAZE6EXohyWhx8+8XhyNvzjUdmo7YUAYEAaEAWGgdzAgQi9CP+wIPSvAym6+d15C+iDoWQgDwoAwIAwIA81hQIRehH7YEfoll1pW2vk+ncWvF35zL3y1n9pPGBAG0jCwzLIrhOWWXzH8bpHFa76PzDMjnj0tX7Nxyy43Kmy51TZhjz33CguNWKQtZaTVcetttgtrr7NeWGzxJVta5sK/WyysutoayR63pa8H7Uk67t/HN3NcmtBfedXV4ceffwkXXnzpsCOCtlLrHnuOCVNPPyOM2We/YdEGW2y5XTjt9DPD408+HV56+dXk+YMBjonjGmmsfbLCm26+tW6arLytih81apWW/Xma+eMprz6qwoAwIAwIA72AAcj8eedfkOybbLp5zTcSsm3XFl9iZM21VtR9h9/vVJUPyW6FzHoyIPF2Tzvv8oeWlrnCqNFV2Suvslqm7OOOPyFJd8z4CZlp6t1HfL0UoYeQQeRsbxXJ6jc5kHnbx407sOsktV3tt8/YcQlht+ddL4Tc77zr7qntYdhpV12LypV2vvc+oEsvs3zYZNMtWvZSi19yOu+9Z97KZ7LCqJUCWrFWypSsBRszer61zxdtsRHcThN6nsVpp09Lyp92xpkd+R+vsuoa7n4b+/ZsseU24cRJJw3ZTz5lclX2KZOnDLluec4+59wk3bnnnZ+Z5neLlHuvFSb0RsiM1KGpL0qiFrR0e++zX5XQQ+wXRFJvIzH2vMuEV1z19xpseOx0GwsjtIBUzQvzm2++CXPnzg0///xzTXynPnj77rd/mDdvXmB7+ulnGqrDdtv/PrkH7uOuu+5uSEan7ndBKWepkcuGc849L9k32nizlrc5BGPF0SvXlTv+2AnJR5G6LL9Ce0wCmn1mIxZeNCy2+FLJznFReZYn7qwsutiSVXmWpmgYE4SyssrUv8x9brDhxuGPe+2dmF2su94GoRF3wsssu3xiujF233Fh2+12CGhKi9ah2+nAuv2faIdO16ddhH7yqVPClKmn1d2N3NKpgNwXyQOh9u205x/HhEMPO6LQPvGESVXSjaa8aD5MdKxMnpN1gtoVlv0fFCL0npBB7DjvNjHrdvnj9j9ogST16663YapWnmc+8YSTajTwaOOJm37f/dVRGyP+0++9LyArxk43n1u3Pdtsv8OO4Z577g1ff/11snNMnL0guhH++uuMhEzPmjWrK/V44cUXk/L5gdg30gZ/2G2PqozHH3+iIRmNlDuc89CJso/Ykkst05I233yLrcLEE04M/uOO9uqkk09JiFrc3kssuXS1DtSFD3qcphfOwae1VdH/O8TB8hx62OE193XW2RXNnl0vEx59zLE1snxbF5Gzy6671eRvpn0x8zh1ytTqfcblo8ksYuKBnfJxx09MlQOhBCfN1LMTeVdZdfVq/cftf0DH69suQh8/01ae773PvjXt1Mz/omi9fr/jztUy0fJzHu+e6I/b/8Dk+q5/2D0ccOBBgdDS26gEnReL82Ej5kd1CX1MyETmV6t2ZhZEUo/ZjJFyQsh6Eft40sR5P/viqxpZyOsmoV908aWqf8ZOvKR9GRdccFGVyBuht3DKlNO6Vq9uE/qpp51eJeOff/55Q+0gQl87fO5x167jYycclxCQKVNPb+iZxfXydrRZH9e9xuwzpKzTp51RJUJrrLnOkOtxOd043233Pat1bIzQH1FzX80Ql9het1uEfs211qnpuGU98zPOPCt3pIYRAwiRz3/W2efUnCOjSMegG9iwMhd0Qn/EkUcnZBZC2+xOJ5/nHRP6ww4/MunY0bmrtxvukVUvrb++/gYb1fwX7fn5cOTSyyUmNCgnTNnh5yHYRFmIP53W3ff4Y12ZXn7ecS6hF5n/jbxnEdEFidTHZjanTzurNAFHY+87BPFxVjt2Ir6TM+j9nw7NIeT9/fffDxOOO746Ax4ib6S+6Ifey23FcbcJPffAEPm0aWc2rEkToe8soed/hHkAH1WeXbM43HiTzWoIGFpkRgD48PuhccrDlMKXh8kImqyVVs6efObTd+O41YSedhm7735Ddk9sMUVKS7PZ5lvWtJ8Rm8qzHCozlrHa6mvV5G+kPTEjMPxQLprK9TfYOPE2gjYdG+4zzzq7iolpZ5yVWeZ6629Ykw6tP3UCF5NOOrl6LcZNI/VuZ55+J/QbbrRpaseL58u++RZbZz7Dsu2KnT0yY0JfRo5px4+feELT9aJzyv8tb/eKh7x0dm2ddddvqF6ZhF5kvj6ZNxK6IJB6JsB68t0Imbf2iDX1Xq6l6XS43PLds6e89977EuIOmY9fOsRB6kkTX+vEeS8Q+mbvU4S+s4Tem4PwMWv2+R19zPgq8Urr2GKCYMQAbVmz5XU6f6sJfVb99z/goGo7FZ3XYISeMEtuq+O32Xb7aj0hVpDvuAzmaPiRiCyC4+8ZUunleM8tECV/rdeO+5XQ08b8J/l/Qlrj+R72v8X0BI10K3aT2Sihp47NyvD4QaFg8loVpr0HfZlZx6mEXmS+OJk3YtrvpN6TcMxs7L7KhjF2PJnnuKy8VqUfOXK5rr3QTQuPN5f4j4gfWrseX+vEeRah33CjTQLmMAcdfGhYaeVVh9Q7q24MN+666+7hlMmnhvHjJxTKy8eMvZ6tK55wJhw3MUyePCVACuzjkUfoGd40+TbUmVZ36k26FUc379Z0+RVGJ5prPnBM+mXCYlqZWXF8II6dcHzygSR/vTohn7rHz2mnnXcNmMQgL20yY6JZGj8hTJx4Yt0yfF2pEx8utKw+Pj4eteLKAbt4Jjma5jROw7mRyixNLOYS9qFkiNzL4JmCmyImFUyaRKOLtpB7L5LHl9XosQh9bYcTrb89T3yPZ7XrIYceVk2HSVZauiOOPKqaJv6feEJ/4qSTU/Mjk/cIGGJP+5+Qhk5HPZyZjLz3DLbqG2y4Sdh0sy0C/w8bNeb/a23SLhv6NdZcO5mzBVmMd56DlV/Eyw3tATk38xfy8j5YdbU1a9oZl5B7jdk7HHnUMVX5Vk6j4dTTpiUy0zp51B0Tq7w9zSQrLz3XMI1Jwx9xvFcY+crasZ23e+WdnJXOx5f9ZljdhhD6mJBx3ipStaDL6VdSj/27J95FbObTnmWMHS/TjtPydSJusTb4z7U/Ub2wHmGvd72e/Gaux4QeLzEzZ86s2rXbwZtv/jvXiwgfi+eee77qscbyETLh9tbbbk99IWJaYVuWlxs+Nt9++60lq4bIPeusc0IeoT/vvAuq6S+88OLUOtB+77zzbjVdo95SMEf497//U5XjD/AixOTOvGfFPIsZMyqTlH1ejv/73/cDnay0/Lfdfkc1OR+F6dPvCbPnzKnGccBztkmjEHzmK8QbafjgpJXh4/ig8oFK03ryoT/q6GNqPvT2MaNzgXmNlwWhwYQEO9KYSPh0JiPWJJstP9eziBS29d6VnMkixKa83cRehL6W0EPw7BnsuNMuNXjwz9w6jqTNMpmBMJqsWGO7z9jfOg5oiL1sfwzmTUaWZtSbAKXhBX/jJgOPKV4+xyhuUHJYGgshl9hXd4LQH3jQIUPKt3r4MP4fevtv7hOC6ok8efcbd0DuAk2QfyvDzEoaDddbP9uO3Y/+WHmtCOP3Tvx8efcwWpS22/uSeqRd93HNTjqvIfQxIROZHx6aesxrjHA3+sxj7Ji8OOwEeU8ro6z7p/gP28x5PcJe73ozZdfL6wn9Qw8/EnO8mvNPPvk0VYMF0UzrBNRkDiG8+OJLQ/LvsMNO1WRphH7tddYfQk6rGeYfPPHEk9Wo2MsNJNm2Cy/KJvTvvvueJQto2Ou1W3wdDf8PP/xQlZF1cOutt6XK9h2PrLw8q1gLST3uuOPOapYHHniwehwf4NYTUh+TfZ+Oa3wU4/uzc+7TPpAxyaIjhJbdrmeFdChMXpHQEwrMc3weRjKsnDRCP3qlVYeQD0tvIUTLRnu87FYdi9DXEnoIo7U9Ewez2tkTIQhvWjo6kDbCg0wUC6SDGFkZkE9wm5afODTllpbOaJzOXyddGn7plJoM8OplULavo6XzIR0OO2+Xhp4ODvVI2/2chjxCb3W0kMmuaKj9/aYdG6Fv1ST6tDKI84Sezl7Rnfcie5yekR3ulTbLKpN4RmesTZoJMTPLK6fetSqhjwlZo8QujUwNt7h+09R7cxsmtZZ9XjF2YhLvz8vKblX6EQuXW6Ch3h+n3nU0Pa+++lrVnMZIe72QPFlaonplNnLdCL2ROlxHoo2HYPIhfOONN2u07g899PCQF47XbqM1v/nmWxJTHSZMovE3P/OUgQmPr2ceoWfY0ZNkZD/55FOJyc0111wXvvjiS6t2NewGoYcMfvrpp9U6zJ49O/Gpf+KJJ4XrrvtH+Oqrr6vXOIiH/4855tia6x9++GG48sq/JeZFjz76WBgcHKxeZ6SCj4dvQ0/oSWj++DGloZOURuB//PHHpIz99z8w/OWvV9SkSetYWXlg0z5YSy5VWw9vIsGCKpjaQGYwMcADheUDV0UJNLbgXhsYk6k8Ql+xw/7N4wkT4OiEMFTPiABD6VanuKPA/TJ6gC/zMnsacRShryX0tK1NbKT9wYbvjPG/h+jbs6k3ssWolKUFK74jwHkRzyRmhkFoWLfQk3XKSSP9ZkfOda/BB+d+sjLy0chicgN5NMJo9SdMI/T818rgkLS+Te1essKibiupH6Rzn7H7hjQT0iz5MaHfauttExnIKbNTz6wyiPeE3qejY88EezouvBf8NY7NdIsOir9m/916hJ7nTEfO77xr7LmCd38t6zjuTPm6FDlOCP2FF19a1dB68tXKY8poFTlrtZw99hxT41PeVoFtZUgZra53q+S9/Mpr1eeftdJrq8rqlhyzVSzyp2hFGjza1CPvWdch9a2oQxEZMaHHPj3O511LQhh3+P1vvnhJi3Ye0g6RhaDH+fmo2nb33dNrrucResx0bIOkppmcvPb665YkCbtB6G+66ZZqHagnduNxG3jNOeTfrkNeyGMboyR2zUK0jrStbciya4Se0PMczLTG0tBuvlMFmY/NisaM2cfEh++++65GvskhNAINSfHxHNskRj5+af83y8tHLs3+1csjvze5IM8BBx48pEwvMyYwEHj7oEIavXyOsbG2OqfVyZtRmJx6Ydo8ACMF5C3aWfcTj9NMOOJ74RyiaPUrOykWogMRzdvj9k2rQ9E4OqWYXFh9CSE98QgPfurTOklxOSec+NtCQSaTkZd4cTLIP2TKNPkmx3c44/ke2E+bTMI0cmcabuprMgm9bTppYtmkOfyI3+YBID+N0LP4ka9DkWPu09cl77gooYcwZ80zyJMfE/rYe1WR+yFNPCoYl5lF6BlFsDL2G7d/TbuAL7sWv2Psv5v2zBkd4llhgpS2e9xg8peWJi+ODl98f/XOE0LfSuKeJ6tbZK5eua0k7nmy6tWjW9f9M+tWHdpdbr0/QquvZ5H1ovGtrk+WPE/o0X5npXv+hReqhO/SSy/LTJeWnxembZ999llN3jxCj6baNrTNabIhBr/++qslC90g9BBk27K0ibz8P/74k0Da7777vqqhhnTYhvY962M5btwBliyxs/dt4Qk9C3X5a3bsbeYZfbF4H5rZFOTfx9sxJNuIC8P3Fm+hfRTpwHG/Ft9I6Mk4ctN80CM3i9AvtviS1Y903jA2pMfqHfuD9nbNlqZe2K+Evt59cT1elKqR5+rz0L6YYGSVDQkyP94+nz9eYdRKqfMjwGDcEeC/ZWXF8z+8lt+TRjSvyCKfJ97eBAjtr8lF2+zr5zX3sRceS8fqvd6tYRqhj/8PVl5eiBbcyqgXFiX0fvShnkx/nfkN1NVMbuhwEld2p5Pt5cbHWYSedNbhjd9PZu5EfDz6mUfoMX/Ma/9mr8Wdw/he086loV9ptTDcNfQi9EOHhNP+LGXiihL3rHRlymomrSf0eT7FvVnIs8/+K/elGtdn2eVGVTXE33zzTU3ePEJfj2BaOd72v9OEHg27bRDhLEJudY1DOlG2ZU0ctjzedMZ7tPGEPs1kgPx+sm6W9tYmHmcReq81TlvEyWtXcUeINroRra5fhZYORFZ9ua8sQg95sg9qPIxu7UnI8LulixddYt4NHnHK7GkT9owUUE6vauitDfLCmASj9WRSa96edb9Gonx5YNePmNi1rImCq62+ZpVsk5a8mHpZPkiyJ6BeExuPetABtXyYXxhG8I9v8WjXrUPrR8HQpFqa+H9hk2khiyYzLfSjUWmEfvU11i6FQzAbd2jSyrW4dhN6TC1pIxQYVmY7wjRCzygJE4J5D9hzYkSHOHbrsPGsLM46X/bfTdPQgy2u+91GIqwcRiL8dX/sR4VQBPlrHJfpkFlbZtrQ33jzP3vWRKTd2txm5Q+xod//oJ5uS5nciNBDKvO0YSxzbRvEz14gFvLxwO77rbfeCr/88kvi2cabkljeooQekxDb0GpbOWkhnm5s6zShR7NnG/b+afXLi6O9bMPmPi8tbWeb90bjCX2aaQkyPaGPzQ2sTJOfRejxZMGHClJjeXyIXbB9yHw4+dQpiReM2KWdz+uPPUmvZzbg0/rOA0TS14E6Z+2WLk277uvV6DEfZysji+DGsn3nKSafcVo7Nw0kZeV1giw9IUSF9JAayEjeHnso8lptu7+00JfHcfxssFH3xJtOlndtiUwjWCaLERgj11yvaPOXDmi7IY1WD7BnuPAmVLHZBXItH3MrrBxMIpBFB5U4MxOiPEtjnpbi/4XvJJhm2vLEoR8pSiP0cfpWn7eb0Fu70ZaVjhudt+b2tMm4aYTe48RwUS+kg0Ub2383jdDHz4DF7fzcEOblgEewjVIL/PEfAu90cGIzMVx7NjuyWSX0kNh4cqNIfQu83PQ4mee5NzspttkOUCfyd3pSbJbmvWh8/LJo17lp6NH+1isDosfG5FSflheR1x4b6UwLixJ674rygw8+qCnPl80xw7a2dZrQo/2xDROhuG71zvEcZNvvd6ydmxDn/c9/fnOJ6ScXd4rQ2+qKsSbb1xMNdZ4ZBcPImCj4PPGxn9TIBzG+7s+zCL19iOt9uP31elpUX26ZY1+XLH/qsTzmGFjdOkHoixCWuI6NEnpPsFgXIJZr535SoRFqu+ZdX7IirB8Zg+wbVmlDJp5ynQnV1qZp7jK9dtW020bQjGT7OpnnNOsUQeytfoTeZIv1M/y1+BgNvNXNyorTtPO83YQeDbTdX6tC6hy3SRqhp/N28CGH1ez2juE/H1/j3Dqv9t/N+3/QAaWMRu/La+r5b9CJrPeOjO/bzmsIvUh9eQLvyWi/aeat7q1wW2myfIjHHDoLzaw66+U1c2wvXwN+u8OixD0rXbvrZ/KN0EMq87wWsBCPbdTZ8q+19rpVcxquYyaDHff1N9wY8PvOi5yJRrYVJfTUxTZ8uFt5aSEvZdsaJfT4ebetjNtKJpzahi1/Wv3y4rzm3Gv90vKYSQzl+YnJnSD03lyBj2Za/XwcHyQ0UdgQewLHR4+PY2yr6vNCwMhTRGOeRei9Fpg6oAGtt8ceJrCfBvdldrR0/l449n7OfUcsTufPvdvFeKKeT+ePm9HQ5xEWX4Y/RpvIqEve7m3NyetdQMYk3cu2Y48d/w73BBHzEktvISTLzF3AHGQbUm2kK40w4SverkP+eQfZuU3iZhTT4ljozt9PPPpCfS0tBNLqlhb6zkYaocdrTRkckhZzwLSy0uLaTejNlIrO6QYbbhxsdWg6/5yzM8LHu5w2Y0KpxVvIqBP/Bc7xoJV2H2mEPi2dmUnVw30eoefZezJOvRnl4f/AfYFd7psRH+sYkob3EYogww9zkzDtsk6GYQblR5oJX9r9WNwQQg9pkqa+PLHvVzLP827VwlKecMcy/bVuHHd6Yaksol403v6g7Q49oceFYVZ5ECfbvFtDiLttEG9IUCwDe2/bihJ6ZJi7xnq26Y899riJHzIp1vt3v/76G4bUzerqJ9aWIfQM5/vNhvdNbr3Q1/3OO+/KrB9yvAkTkwFNdicIPZpl+9DkkXGrkw/RjmIXz8fTZDAC49M0epxF6L0NPRMKG5HvNaxW73phWifE+12vR+ysnmbGQXlF26rThN7qWiaEfFsbFplka2Yw5EGLbWX5+RpZpoKY7XnMWbmQLJMTh5Ye4mmYh2R6r002AnXoYYcn8wdMrmn1vUxzjYoMHx8fmzkbstIIfa9PimXSOsqd+L44Z+6BtZFNarVFv+IVWMG6pcXdrcnDbAWFB9cgxBYfh50k9H6SNJ3HtI6lr5/dFx1HH++PGRnwbk7pvPjr9Y5TCT2ES6S+OKnvZzJv5Nqb3Uy/976mbf6n33d/1RUmsq2cboUjR2YvLFLvT9LI9aLEPStdI2U2kscTehZ+ypLx+utvVHmrX3GVPLZd/ue/pOb3pLoMocf1p21Tpgx1k0hd0aL51VVjDb33DvP888+n1g/7Rr+VIfTUwWvOszwAoc3Eyw129riFtI4PH2rbuJbVIcD3tW3xSEAnCL1pN9PcVdIGmMZAaNiz7sG0YnzYIENZWCsTn0XovZcbNGV5tqm4NmSPCVmrCD1y7WNOyIrCefcIHr1mOosoxTL6gdB7U6KsCdx2X+DINLa0m3f56Il+HpFi7o+XgZy8DpJpjukwGLYIrU6ERkYhcZifIZMJuD6NHZsM0mCiZPE+RJPvOyidJvR0VvxE9Hikytv3+7kO/h64P/Y0l702+uC14daGMaFHphFa/gN0ylBeWMeIMvKcN8SEnk4jeePd/7/ia3ZOO+Rp6FkbgLRMkOZ9zqhRxfUq7leH7tZG5Em7ThydRdoAhcRBBx+Sihff7vFxJqEXqS9G6BcEMs+z3mfsuCoBx+tNM2Yy3oQHWcjuFpG3cpdbvvzqn/Gfpcx5FlEvGl+mrGbSekIPYWRl1VjexZdcalwyCbfc6jd3aCzwZFvsHx05vGCxubetDKG/8aabLVti1uPLtTr6FV5JHBN6tHe2oeGOV1qFNHg7dtLGhB5C9cwzzwY6GGnmD3RkbGM0IY0weE28d91J+X7+wXPPDe10YNbjtfMQeLt/wnYTejTsRoqYr+DLtmOvec3SiOPSzz5qsXmCySGk/SA4yIn9iPt0HHvCFHckvO/u2M7a5Jj3DeoVm8PQSYGAltmztG9ew0pbem2z1YUQ0weIrrUTH3l/Pe+4Hwg9HS3DEvfovcX4e4Nk+oXKYq26v1fIdNoESeRBQE2jbm2Khx1flj/2hNDqGWOVSeUmy9JQHy/Hjr3GmbR+ZM3S+AmjyE0j9PwPyuCQtFnk28qlo8n/2cxh7J7KEnqeleVNMxGx0SbvJSmP0GO2Zu3Kf8HIN3F5nTfuyz8/zr07UKtj0RBZeYTe2tFCG90pKj8tHfdo8hoJcwm9SH0+qV9QyLyR3iuvurqG1J92+pmliXhM5pFp8rsd+mHTRv4sZfIUJe5Z6cqU1UzamNBDTD/66OPEYw1ea7wveK6xCqwvD42M31g19sKLLk4+oqxy6oko6coQegia135DfF955dXkBc8CVd9//4MvOjmOCT119eY0dC5YvZWP/PR77q1ZidaExYT+pZdetkvJAk+mXfftwIq6tnHPttrurbfeFr788iu7lIRocnxePCrYhGMSgAlcWNKRomy/qBSLUsXlt5vQQw7s45NFRCH9/oOGuzZW6ETDRn5PnJGVZd9LeiuLkAnXvq3i4zxCT2fO21Fjk4qveexVse/3i9vwIcXuOpbfqnPsbY2kcF8cQ3SoB/bATNLkXo28WBtk2Qqn1cuT3LJebrz2NE12K+NiDzY8Q7TXEEw6NGiEvY08bRFPYoXA+/ak/pBnvAMhA8zRHnF7Wrumdbq5R7SulsbCNFzEctOILPL4X/jRBOqJ3TUuCZnYCyatHAvTCH2r2p9RJzpRZr5iZfqwLKGnfSw/IyK+rv6an/SfR+h5N/Ac/fOlvc1cx8uPj2NCz/8HW/V4Z4SQOlNGfM3OGdUrQ+iZt0B5fqetrW0sZKTSp/HHcfvF91fvvC6hF6lPJ/ULGpk3su1Nb9CuY36DPbxdzwpJQ1rv0x53mFnpuxG/aIlJQvX+OPWuZxH1ovH15LfquhF6yPGDDz5UQzzjk7fffrvmZW11YBJs3oapifmUL0PokY95gtfwp5Vz9TXXVqPTCD0kzhPmauL5BxBw70EmJvRffPFlTRZIp927hXQ+YuJek2n+CQTf8vgQAlNvwyQnNgtBRrsJPQSDj1E90uc/pvbxikM+oH7hHt8GHPvOA3njzk+cPo/QkxYiHZOvtDphFhDLbvU5NsH16uLrFmuG69WnXwg995FGdPy9++OsdmBiq++w+TzxMTjxXmy4NTWV3QAACJVJREFUniXXa/Sz5jyYaQ5ywDTEPev50LH0oy5x3Tj35mjtIvTerMfqgHYe3EDiLa4soecdbXnpEPl2GLP32Oo1P4pinTozueH9SafORrIg77wLPKnHRzwjPF5+fOzfQfE1f27tXe+dVobQe/ncq5lj0Ta+7RnF4xqmN5gPpU3Q9rLKHBci9JCv2Ka+lzSvnSaHe++zX/ArwkLuO12HdpW37nob1rixNIIOWT/+hElh5113r94rJP6ww44KuDe1dBZC5pHVrno2IneZZUflvgzK/HHqpcU8oyh5j9O99tprHaunaa+x6+aemOSKH3m/QYaZCJs1+Yx8N9x40xDiTb77738gyWd27tyrbzuIlG1PPpW+Ui0eXdBMxxv15EMNAbftkUcerZFvZaEVS9PoQ9aR701isGG2fITjx0+ojjRkyScdRJ92ijsPnNO+1NXLjY8hr2l1JP/LL7+SaXtNJ8G22GzEyvBzIGLPI5aGZ8NGeRZHaMPWkBgfn3aMSRP34T/EfNAgspi9FPl4mQ0t+bbYMn/5em+uEJvcWP3wOuG18UY+qCMEAo2upW13iB24r7PVxYeQnCLayLiufmJl0cl0EBrKjk1aYtntOGcCICZF/t79MWQarWde2RBI2tPuw+fn+bLQlHeNSefep0E7Gsv3izyZP/I4jdmFIwtsxdfjc3CfhkE8/fCs/JyPrDJjmWXPbaSAdmE0yI8q8B+wdokJPRpruxavB4BZD7K4jlxfJ2QSxzU6DXatMmpRWQCM9wJerUy+hRBz0tNZ8GSY58zoStbE/FYTejoR1Kke8aeuzIUAF9YpsXthgjXvJjunfeMOHjigkxt/e6zNioaFCT0EKib1jZCqBSHPgkrm/bOJzW+MqBcJe7mzN2JEtial6J+mSDq0PxDzmKzXOydPluaoSLmtSgMxw16cYdKsl2daWbyAIZWsAJtFsNLyFYmjTmg0+OA1OjTJcC7efLAdTdO0Z9WDfEVftgzVYu/PRFbaIU97l1Ye9zZmzD5JO/KByjJPScvb6jjvuq+sFpsPOqShaLv5uuMZqZ4NsE9f5BjShHaMOnltYZG8rU4DRjCL4f8FycSkBOKUZt7R6rJ7TR7vCUwsaAN2zLpis7IidQarmABiZ83ITJE8nU4DprHBZ0XZWJvd7rrQLpj6pL2X8wi972xASun82W6EnfjY7S4de+Ihw35SOpp4I7c+hNwziRXC69+ZzGVJW1mYifp8b3y7NUvo+f9ByJFNx9rqlzdSiGkhyhrfFuRDjndja7Jsng0rHdMJR1Nv1whZDK1RDlCK0EP4jOhdePGlPaV99WS03cd77Dkm0dCjqW93Wd2Uz2TW2AQnj9CTthcmwOa12ZJLtc9O1r9YdNz61XfVpp1vU3Pdx4em1QRbz7Pzz1NtrjZPw0AeoSc9WmZPOuNjyKwfCYHAmzkU7xBfJu8R8kPgIc6suUAH3qdJO2akDcLvy45Hopol9HQkY2JOeZjopNWJOHzKW53Iy4hF2lwjS2OE3suj7bxmP835gk+fdVya0OeRJV1Lt7fv93bBtIbJrhB2TGmM1H/+5VdJHJ27Inb2vdAOo0atkvnHzPqTKF4fweGKAXw+8yFi8t5wbQPdt/7/CzoGMKeEiLJnjX6ivYYw4+LSds4xw0kbbSB9lgmgd0Fatm2pKxOK00gv81SYA1HvfYXXIO6BCdhx+cy1sLbA5Kae21hGE4448uhEnl/8LJaLaRGafhYJi6/ZOaPGjB6njaJYmrxQhH6lBZOE9wJ57tU6SEuvD3TeS1HXKvjAK5Rpq7LcVaqt9F8SBoQBYaA3MCBCL0K/QJsNpXUqVhy9ahix8NAVTfVS6o2Xkp5D7zwHbFSx95W5Te88E/0/9CyEAWEgDQMi9CL0w47QQ/I76fEm7Y+nOL2QhQFhQBgQBoQBYaBVGBChF6EfloQeUr/4krU+c1v1p5IcvaCFAWFAGBAGhAFhoJMYEKEXoR+2hB5SnzeJpZN/RJWlF78wIAwIA8KAMCAMNIoBEXoR+mFN6FcYtbLs6RfSC7TRF6jyCTvCgDAgDAgDvYABEXoR+mFN6NHSs9Jopxac6oU/veqgj48wIAwIA8KAMLBgYUCEXoR+2BP6KqmX55tM/7h68S9YL349Tz1PYUAYEAYWLAyI0IvQi9DPxwDmN7KpX7BecPpg6XkKA8KAMCAMDAcMiNCL0IvQRxiQ9xu9/IfDy1/3KJwLA8KAMLDgYECEPiJzmF9oVxvgp16LTy04Lzp9tPQshQFhQBgQBhZkDIjQi8CrA5OBAVaUXXKpZWVXLi84woAwIAwIA8KAMNDTGBChzyBz0tJLS28YGDVqlYTYyxOOtDsLsnZH9yZ8CwPCgDDQvxgQoRehl4a+BAYwxVl08aXCQiMW6emeul7K/ftS1rPTsxMGhAFhQBgoiwER+hJkzjS2CqW9BwPLLT86jBy5XFhsiZGJdxxs7kX09RIu+xJWemFGGBAGhAFhoFkMiNCL0EtDLwwIA8KAMCAMCAPCgDDQxxgQoe/jh6eRAo0UCAPCgDAgDAgDwoAwIAyI0IvQq0cuDAgDwoAwIAwIA8KAMNDHGBCh7+OHpx65euTCgDAgDAgDwoAwIAwIAyL0IvTqkQsDwoAwIAwIA8KAMCAM9DEGROj7+OGpR64euTAgDAgDwoAwIAwIA8KACL0IvXrkwoAwIAwIA8KAMCAMCAN9jAER+j5+eOqRq0cuDAgDwoAwIAwIA8KAMCBCL0KvHrkwIAwIA8KAMCAMCAPCQB9jQIS+jx+eeuTqkQsDwoAwIAwIA8KAMCAMiNCL0KtHLgwIA8KAMCAMCAPCgDDQxxgQoe/jh6ceuXrkwoAwIAwIA8KAMCAMCAMi9CL06pELA8KAMCAMCAPCgDAgDPQxBkTo+/jhqUeuHrkwIAwIA8KAMCAMCAPCwP8HN9sh46qKdp0AAAAASUVORK5CYII=;" vertex="1" parent="WIyWlLk6GJQsqaUBKTNV-1">
          <mxGeometry x="490" y="120" width="372.52" height="68" as="geometry" />
        </mxCell>
        <mxCell id="QzUTH_ZqcAfX9e_XdB7s-4" value="" style="shape=image;verticalLabelPosition=bottom;labelBackgroundColor=#ffffff;verticalAlign=top;aspect=fixed;imageAspect=0;image=data:image/png,iVBORw0KGgoAAAANSUhEUgAAAiAAAAB+CAYAAAAdkqqyAAAgAElEQVR4Ae1dib9V09v3p7yGQinNZErmmeQ1CynKmB8vUoSoyBSZSQPSJKFJSakUSkUIUZJo+DWpe+693XvX+/muc5/dc9bZ+8zD3ud81+dz7tp77TXttb93Pd/9rGc9+5D/OfQIU4jf4UccaTp0PM507nICfxwDYoAYIAaIAWIgTwxApkK2FkJGh7GOQwrRqUMPa0HykSfQSNxIXIkBYoAYIAZcDICEQMYWQlaHrY6CEJB27TuT6ZKAEAPEADFADBADRcAAZGzYyEMh+pM3AWnV+lgCrgiAc1kwz/lmRAwQA8RA9WKgVeu2FUdC8iIghx3e0nTq3JUEhASEGCAGiAFigBgoIgYgaw89rGVFkZC8CEibtu0JuCICjm871fu2w2fPZ08MEAMuBo5p054EBGs/MIpxB4fn/IchBogBYoAYIAaKg4G4FqRyDFJz1oAceVRrEhBqP4gBYoAYIAaIgRJioOWRrStGC5IzAWnTtgNBV0LQ8Y2iOG8UHFeOKzFADEQJAzB9KMQOlDDUkTMBad+hCwkICQgxQAwQA8QAMVBCDFTSltycCUjHTscTdCUEXZQYOvvKN0pigBggBoqDATgmC4P2ohB9yJmAEFzFARfHleNKDBADxAAxEIQBGKIWQviHoQ4SEGoxqMkiBogBYoAYiBAGwkAeCtEHEpAIgS6IETOdb0vEADFADFQPBgoh/MNQBwkICQjffIgBYoAYIAYihIEwkIdC9IEEJEKg4xtO9bzh8FnzWRMDxEAQBgoh/MNQBwkICQjffIgBYoAYIAYihIEwkIdC9CFSBOTEk041N9zYh/8oEfpHCWLwTOfbHTFADBADuWGgEMI/DHVEhoD87+VXGQn9+t+eFQm59NLLzZQp08xnCz4PLDdz1mxTUxMzY8eOD8yT6z/LccefZOveu3ev6X/rHSnr3717t9m7918zYMA9KfPl2heWy+0fnuPGcSMGiIGwYCAM5CGTPlzb60Yz45M59odjt0xkCAge/K/r11sO8tO6db7CuftpZ5m+N/c3w4Y9ad555z3zxRdLDIS+Do88OtS37Jo139lsn3wyK+F6n779zNxP52X0mzR5akJZAeszzzzvdeG008/2zYO8ICcSzr/gksB8Ui/G48CBAwX9rV37Q9p2pX3GnJCJAWKAGCg9BlxBHtZzkI8Fi5baH47dfoaagHz99Tdmf02N94OwlaDTcTxmzFizYsVKuZwU79q123z66Xxz5VXX+grYIAICIpNpqK+v9637n3+2elXEYjHj/vbs2WPLrVz5bcp8KKcJwrZt27z8hTpAnZxQSj+hcMw55sQAMZApBlxBHtZzIR8Su/0MNQHZsmVLxnIVmgshINB6LFmy1GpBhgx5zJx73oVphWoQAYHNyfzPFmT0m/bB9KR27rt/YEb3cF2vGzPKByIlIIVNzKndz0z5w/0jNDU1GWiI0uVHnVI/Y06IxAAxUK0YOOfcC7KeC3Mpk8v4uoI8rOdCPCR2+xlqAnLGmecaCOb58z8zEydOMuedf3HCb926n80H0z80F1/S03TrdrpHQNxllKAHfOONfQyWR/Db8vffVlBjeUfSUi2XBNWp008+5TSr7UDFGzf+YcH8wgujbTt1dXUJ4BYtCcgT6jjxpG52aQWZX37ltYS8uo10xxgfBE1c0pXhdQodYoAYqGYMTJ36gZ03EWc6DrmUybRuN58ryMN6LsRDYrefoSYgGPRnnx1lgYDlB/0Qbr9jgE1vbGy05APXRAOSKQFZ9MViW0fQnwcHPZTQpm4/k2MsISGgjyBJKANigXOEoUOH2TQQFbFVGXD3vV6bMIxFwBJTuvZmzPjYbNiwIekHooPQ0NCQdE3yv/7GW2nrT9c+r1NgEQPEQCVgAFoMHTIhIUI+pFyxNSGuIA/ruRAPid1+hp6AYAcJyAeCJgSrVq22aUuXLvOEZ7YEBJqOTX/+aX9YokCAsJe03jfd7NWdyz/Wzz//YuuEHYkuv/yrrw1sLXA/H38808B2JE4QNhrcr+SFBgj9wu4c7OSRdL9406ZNtq1c/mD5ya9OplGgEAPEQDViwCUUqUhINnkLNZauIA/ruRAPid1+hpqAQPuBbbF///2PlasQ2jjHT7QIs2bNseewtRACopdRZDlFx2eedW6CwIVWQgiI1p4AWNhpku0PS0UCNK3RkDTEgwcPscTCJQwgQJpoZbIbBvUJAfl+7Q/m9dffzOgHDQgCCQiFjMYmj4kHYuAEkwmxyCRPMcbSFeRhPRfiIbHbz1ATECEZrpD2O4fgFQLid12n3XnXfzyCAHA891x8mQd5QHZEC7Fhw0ZdLOPjoJ02aOuSHpd524lRIbQfTz31jLn//gcTCAnsWzIlH6hXCMi4cRMS7q3rCaeY5cu/MgsXfeHdl/xDYFcQAgkIBY5ggjGxQAwcxEAqgpHqWrHH0BXkYT0X4iGx289QExD434AvD/mJTQWEpqRJ/Ohjj3sERC+j4BgBSxyytHLtdTckCGnRBNiMxphVq9fY6yAFr7z6etKvrq7eZl24cFHStdEvvZIk6AFGaDzcdtB3GM8KWKGJwY4bCdDK/PDDj8YlTJJfx0EEBPYlEnCsy5CAHJxo9LjwmONCDBADggE/ouGXJvlLEbuCPKznQjwkdvsZagLiPkhoBBAgmN1rOBcNiF5GkV0n2OXiV0bsLERIS6zrcMvt27fPZnt4yKNenX7bV7HUg10osOHQ4a+/thiXBOk2sDvH9fEB76jvvve+3Uqr88oxCQgnTMECY2KBGCgsBlzCoedzXCv1eLuCvNTn4uFUiEWucagJyFlnn2cuv+Jq7yeeQkFAdDqOoT3IhYB89dXXFkuyCwVaFln6gfYDwIIWAiRCvKhqAvLAwMF2GWXz5r8SQIilD2hdJKDPaANlZfdJuhh5QTxQVgLqlCUiDXoSkMJOOHpsecyxJQaIAT8SUg7yASyWmnC47WkPp7mSD5QLNQERQiHCN1UMcgI7EARsSZUJI5UGBJoGhJ07d1o7CBxD8/Hi6JdtOuwzIOyFkMiuGE1A5Bs1IAmuFgRLLCAuACl8isA+I9swadIUA03KjI8+NthSizrl3nQcREAuurin1yRImi7DJRhOqhoPPCYeiIFgDJCAHOERn6ogINi+Cjfl8tu/f78nTCVNYjgs27Z9u73+/KgXPUGbioDI7hp8O8b1hLp+/W8G9UDrgaAdh2kCgn9Y0Z6MeHKk167fPzJ2x2BXjP7BNgTLNDpNjuHFVPyH+NWn04IIyPARTzX3P9lNPAlI8GSjx5bHHCdioLox4Ec+7MRqjH3BLDU+XI1Eqc+rYglGHio+CAcDSm0DgvOhjw8z0GJIPjEOxQfpJC2IgMCwEwFkAnldAiLlYZCKAG2MpLkEZPbsuTbPd9997+WRvBLDSBZ2KLDjkDQs08jySs/LrvDS5TrIFa5jl46kBcVBBAReZBH++GNTUh0kINU9qQZhienEBTFwEAMu+cC5X1opx6zUhCPX9tzlGbeeUC/B4IHCvgMByyAXXtTDHkMoyzIJDDqRD0slEvRSSBABwe4TqQfl/QgI6hE7DmgjBGAuAYFBKULQx+hQDu7UEUCSpB7E4oJ92rTE78j0ur63zY8/mWhB/AgICI7sAgJJ0u3imATk4CTjjg3POTbEADGQimikulZs7LiCPKznkScgsMlAwBu81oCAHIhtBnxrXHPt9TYfvpirH34QAUGeN98c4xl0+hEQfFwOAXVqw0+XgKAucXner//tCe1LX0AG5Gu+eqlGvra7ffuOhHKLFy+xbWMpSOpIFQsBGT/hXS//vHlx7QeIFkjSVVf3ssa6Uo8QkBUrv/XKyDXGnHyJAWKgmjGQCcHIJE8xxjCshMPtV+QJiNhXvPzyqwkEBA8VSx4IEKT4WB0CDEr1A09FQHQ+l4BgiUcIA9yl67x+BOT779fa9iH0dV59LD4+9JZgfKlXgnhoRduiebn33vsD69N14yu3KC+GpnLfqPvDDz+y5ANEBKQNhEMvU+l6eEyhQwwQA9WOgWyIRTZ5CzWurqAP63mkCYgYgEJwQsBqDQge5IAB91jZjWUN8bXhEgARxFro+4HAJSDyFVkIbLSty/gREFkSgt2GzquPZQkJncbuFLkG7QfuUVywgzAggHxJnkzjGxwfIiBk0N7Arb0QKlu5Mda4F27btXYn03aYj0KKGCAGKhED/Bjdwd0u+RKbSBMQ0X58880KK4hFgENYC/Cx9fbXX3+1MhXp8B0i1xDnSkDghRUBWgtdH45h64GgHZGdfc7BLyh2P+0sr78gJvoHY1bYe+g0GKbCRkTShCjAT4ikSez3UTqQGSzlwB5GB5SHozXpP4gGDFrF7kTygrzBg6vkY0zBQgwQA9WMAdFqIM50HHIpk2ndbr58iUGpykeWgGB7KgJIBWw83nrrbSOu2KGV0A9EBKreqSLXcyUgKA8NiyyLbNz4h/VOKqQIfdNaDOSHvUrfvv28vg0dOkxkfMFivcX4jjvv9rYA6wbgvAwf35Mx8IthEwL7Eh2wzdmP4PiVZxoFFDFADFQyBqAJyfb+cimTbRvIXyoCkW87kSUgGGSQDjjgwps7iIgEfOZePzR8ERcBO2Z0Oo7zISC6rl27dkvzNsaSjb7ud4ztwz/9tK6gPyyxSFvYySNbj2OxmIFXV3y/Rq5nEoNk7dixw94TyBWXYyhUMsEN8xAnxED5MJAvMShV+UgTEA3wSZOnmiVLlppRo0Yn2WQgX5DgBQn4/POF1gZC1+cew6X6++9PNnBo5l7DObQw8DmCH7ya+uUpRxq8s2LLbr5t44u84uk137pYvnwTE8eeY08MVD4GSkUg8m1He0zFsVtf6P2A8J+p8v+Z+Iz5jIkBYoAYyBwDriAP67l4TAX5wLHbTxKQLpk/dP6DcKyIAWKAGCAGyo0BV5BH9ZwEhAQk7+Wbcv8zsn0KBGKAGKgmDESVcLj9JgEhASEBIQaIAWKAGIgQBlxBHtVzEpAIga6aGD7vlW+0xAAxQAz4YyCqhMPtNwkICQjffIgBYoAYIAYihAFXkEf1nAQkQqDj24D/2wDHheNCDBAD1YSBqBIOt985EZBDD2tBtkziQgwQA8QAMUAMlAEDkMGuMI/ieU4E5PAjjiToygC6amL4vFe+0RIDxAAx4I8ByOAoEg63zzkRkBYtjyYBIQEhBogBYoAYIAbKgAHIYFeYR/E8JwJydKs2BF0ZQMe3Af+3AY4Lx4UYIAaqCQOQwVEkHG6fcyIgx7brRAJCAkIMEAPEADFADJQBA22P7VitBAQGqF0JujKArpoYPu+Vb7TEADFADPhjoFPnrtVJQLj84g8I/qNwXIgBYoAYIAZKhYGjjj4m8iQkqyUYbP3p2Ol4aj+o/SAGiAFigBggBsqIAchi16YiaudZEZBWrdsScGUEXKmYNdvhWxwxQAwQA+HHwNGt2kaahGRMQI5ocZTBuhNBGX5Q8hnxGREDxAAxUPkYgEyGbI6a5kP6mxEBgdMTLr1UPpg5YfEZEwPEADEQLQxANh92eMtIkpC0BATko0PH46j54NILMUAMEAPEADEQQgxARkfRO2pKAgJva1x2iRYb5tsLnxcxQAwQA9WHAcjqqHlI9SUgUOe0adueTDeETJcTS/VNLHzmfObEADGQKQaOadPeHHpYNJZkEggIttnCqpZaD4I9U7AzH7FCDBADxEC4MAAZDlke9q/mHgIL2iOPOsYc264jNR7UeBADxAAxQAwQAxWEAch2yHjI+sMOD9dXdA8hcw0Xc+Xz4PMgBogBYoAYqAYMkIBUENOtBsDyHjkxEwPEADFQGRggASEBobqVGCAGiAFigBgoOQZIQAi6koOOby+V8fbC58jnSAwQA/lggASEBIQEhBggBogBYoAYKDkGSEAIupKDLh/GzLJ84yIGiAFioDIwQAJCAkICQgwQA8QAMUAMlBwDJCAEXclBx7eXynh74XPkcyQGiIF8MEACQgJCAhIRDLTv0MW0advBtGrd1hx19DGm5ZGtTIsWR1kHQ3AyxB/HgBggBqKEARKQiAiffFgmy0b3LaVdu07m6NZtSTRIsEgwiYGKwwAJCAkINSAhw0CnTscbfFCqRctWFTfhROntjH2lNoEYKC4GSEBCJnyorYiutiLfZ4cPSIF4cNIr7qTH8eX4EgPhwAAJCAkINSAhwACWWmDTwYkxHBMjnwOfAzFQfAyQgIRA+OT75szy0daatD7mWBIPru8TA8RA1WGABIQEhBqQMmGgY6fj7G4WvmkV/02LY8wxJgbChwESkDIJH2otoq21yPf5te/YhUsufOOtujdekoDwkYByPhMSEBIQakBKjAGQD+5w4URczomfbRN/YcAACUiJhU++b84sH23NCZZdaGzKyT8Mkz/7QByWGwMkICQg1ICUEAPwYFruf3q2T8FDDBADYcAACUgJhQ+1F9HWXuT7/LjbhZN+GCZ99oE4DAsGSEBIQKgBKQEG4Ocjn396kyY0NRkjv4ZGY+objEEsaRKjGjlGrM/jZ/5/8+k7y1LgEQPEgB8GSEBKIHzyfXNm+WhrTuDhNF+7D39aEE8VIoEzfRx0DmKC0NhMUGw+n7LxXPG/fpMH0yhUiAFiIB8MkICQgFADUmQMFMK9uiYDfscgHo3NGo0vf2kwbyyoN4gRkI7rmpxIXly36c1l/epGWj6TDMtSSBEDxIAfBkJPQG7qc4sZNuIp0+v63lUrKHHvGIPefW6pijG44MJLzfARI80XS740365aY/b8u8/+cIw0XEOedJqhKVOnp82Tro58r+PDcn7/eNmmBREDIRDQZiCMXVRvTns4Zk4dHDPdH46ZCYvrbbosxyB+e2G96fd6rXlxbp3ZXxtnHqIN0SQlXmP8b7b9ZX4KHGKAGEiHgVATkH79b7eCF8IXv3yFQVTLy/0j7tfvtoodhz59+1mCIYQjXQwycuXV1/mOB8gHypf7mRdC+4F/4lRBllT+2NFoLhgWM+cOjZmLn4zHFw6PGaSDWCDf8Bl1ptugGnP2YzFzyoM15v53a02svsnTkgS1k24i4fXKEjZYMvzfy68sCHkmNioLG4V8nqElIC75gCak3MKkXO2LFkiISCWSkLfHTvA0HemIh3t9zNjxCdgQ8hEGAlIoh2NBxADpMDiFHmPSsnqr9QDpOO+JmEEMLcjEL+NakE++PWA1I0jH76IRMUtGkI5wAPUELMUUctJhXakF0sJFi0xjY6P9nXnmOSUnAe07dDZ1dXUWE7t378nZfumHH3707iNfGyhiJjVmojo+oSQgLvnAebmEf1jaTRqTCtGEdD/tTF+tB0jE4IceSdBwQNuBtFlzP00iK7PmzDWoS5OPchOQfHe+6EkF0gDkQP9gx4Glk/oD8fS3F9VbQnHhiJg5f1jMIIa2A8syKHf7mFpz5iMxqyURgnL6kJgZOq3OXpdlGCt5nD+6LzwurjD49ttV3uhfeNElJScgI59+xmsfB/3735ZTH/7880+vniOPap1THcRacbFW7vENHQFJErQkHx75ShqbCiAhWEbRGg2Qi0zsO5DHLfvX31sT6io3ATm6dduCTbreTK6IiKSBgICMWAIyOK7ZAAERDcf4L+IakJ4jY+acoTFz/hPNBGV4zNqLkICEa5IvNwEBkZcATUzbYzvkhGMSkHDhqtxkw6/9UBGQJAFL8uGRD9HEJI1RhEmIu+wy4smnk+5X7jsohkZEExj3OKhcKdJbFPBja1rzgWOE37Y2mrWbGqz2AucL1h4w0GhgecVqQIbH7PnCHw/YPFePaiYgw+JLNCAo3R+KmRkrDlgCU9esSdFtxVviLhi/ybNYaeUmILiv886/0Lz08ium26mn50Q+UAcJCAlIuv+R0BCQJMFK8hEojJPGKoIkBAanmizkQj6ERLiaEF2v5Cl13L5Dl5wnbr9/WhABEAMsk8CY9JmZdebcx2PmvMdj5s63a82GbY2mpq7J9H651pIKGKOCXNz0Sq1NR/lB79eabs0aEpAU7JbpNTpm9jXvhBGygTYQwHOE7Pj1iWnFETBhICCFeLYkIMXBRyGeTVjqCAUBSRKoJB+B5EMEadKYRYyEaNKAZRe5r2xj1+ZDkw8cZ1tfofK3aZub2jpoYgARONBMDGavPmCJBOw4QDRg59H/jVoDDcbv2xrNza/V2mUWxCAmlkw0GbPur0ZzxXMxc8YjMXPGkJi58rmYWftn3FfIxu2N5vetjXZHDPJbPyHKIDWoX5mmwwjxxJO62V+QSh/pkifIZqBzl642D2K0Dff2UiboOzudOh9v8xzf9cRAUih1tGsf91jb5bgTbBmU9btHtCVl2rRt55sHdUkevzqC0oIICPr06KNDzcAHB5lzzj3ft02/OjGWl/a83Awe/LB5/IlhVrvhl0+nyTh37JSaSOMe+/S9xTw18mlz1113Gz3GqQhI1xNOtmMThAX0pVXrtt74BeFB9znVMXBy3XU32PvH+GEsU+V3r2E8+vW/zd4nxjGTHUKCIX2PwBOe4d3/udcIhnVbuOde199oRjw50lx73fU5GwDrOsN8XHYCkiRIST4yFppJYxcREgL7DU0UMrH58CMG6chHOQkIJpJC/uNDKyFGp/dOqLUkAuRDL7V89n18NwuIyOadjXZXC8gEdskIedm5r8nMXXPAgMTgGH5AUB/qQX3XvRgzqzc2OzBTrtzzvRdM2BLW/fyz79j8+ONPksWMGPGUbx7YJCDU1MTs9Xfeec8r88abb/mWkR0dyAjB594LBJOE1avX2OsNDfExqK+vT8qP8q+++roUMd98s8I3z6ZNm7w82SxluARk6OPDzL59+7y65GDbtu3myquu8W0bfQRJmvbBdHPgQBwXUg4xxvGndesC7Tvk/v/999/A+ufNm2+aREWmKsdzhB1JEAE5tfsZXu61a38IrH/s2HFeviA8uM/SPQfxRT8FN16Fxpja2lrzycxZge2jLjw34NUvAFdvvjUmsLyMDcpf0qOn2bVrV1I1n3++0BIt9PO99yYm9RN1fLlsWWAb7v1G7bysBCRJgJJ8ZEw+RCAnjWEESAiWW4SAgETIvWQTZ0I+yklAgt7Gc50gZJ7HMssVzyYbk2JpBbtdQFKaZWfSZOeX8Oq8OnPSwBpLQKBRgQ3JZU/HzN+74r5DZDkm137rciLUgoS6FpRr1sSJgC6PN0IJQhR6Xna5JFmBqvPjGG/+Oox64cWkyXzS5ClelmefG2Wv//bbb14a7CHcetevX+9dFzLk5hGhF3TdzS/nmoBoguU1qA4wliedfGpS/6Ax2LLlb5XT/3D37t1WyyBtSyzPKoiAfDpvvn+Fzak1NTVm69atXh6twdBGrtiqK2268bhx473y0Ai41zM5X7FypVdH0MHvGzYY0XzpOqH9wf2nC2PGjPXtmxAQEDGMR1BYvHiJmT//s6DLNn3ZsuW+bej+RvG4bAQkSXCSfOQkiCG0k8Yy5CREL7/AiDQb4oG8mZKPchKQQvs9EAKyL9ZkeoyMxe0/1G4WEJBxi+K7XWrjkZ24vvujwcDPx7JfGuwSDRKhIYEdCfx+3PpmrTnr0bj2Q3bOwHZk8rJ4JeIbpBCT208/HdRwuEsImlygj34kZeL7k+w94c8Tw4Z7EzLyBpXR5AJ58Nbv3svGjX/Y8vgjSwivvfaGl4ZjXQbPVsiFZHJJytXXXCeXzPLlXyWU13X5HWsCIpVs3vyXGT/hHTN8+JP2jViTte3bd1hth65Law9Qx2efLTCPPPKYueHGmwzuR2uFZs+ek9S/VAQE2ggdIGDRHkgCtEFSVucpBwGZMeMjrwsgA9DMPPvs82b06JcNCKYQBGRa+mWilgEvEP/8849XHhhbsmSpeXjIo1br8fvvv3vXcAAtlR5/HOv6kQfjhPahqdPkTFe0dOmXdqnsgYGDkjQvQcuBbrtROi8LARHX4uJYqxhxmF23V/v9r1r9nacBCfJkmi0pCVv+Qu6AwYQCTYS1A2kw5pbXa82ZjybudoHDMexmEaICW5C73q61227h++Osx2Lm+tExs+aPg9+HARGB0SquydZcMV59flbcNwi0KaizEJMatA8SXnn1tYQ6tbCQPNBu6HY3bNgol4y2TYC2RIJLbFwtAISjrjM+tvFlHWgD5Fqqt/Sbb+kvzXkxyIGURTxx4vvetYcefiThms7nd+wSEL+334su7pEg4KAp0XVB7Q8BiJ+f1gflJWzbti2hLOoREuFqQEAktGCFUNbt4vjKK69JyIN2Sk1A+vS5WW7Pxn5LOPfdP9DLA0IJOxG5F41HjMVZZ5/nXZM8WL6RgDGBAze5hliPk9+yI4ipDs+PeiGhPOrYvHmzlwX91fVXwnFZCEgxCIdfnWETStIfv74WI03aC1ssyy/l1FAUe0wKPTmABIjL9enfHDCnDKrxtCDYzXL5szGzdQ8EjjFbdzeZq0bFvaCCUFwwPK7hgPEptt7+0Gx4Ck1J71cSCQh2x0ADgu/EoK5CakBgfyHBVb3DngEB6nCZuKdMmZow4YpQxBu/Hl/9Ro6to3INAkXq+v77tdK0NfKTPBCWEmArIOmIxe4C2gKdPmfOXFsEWggIbwS83eo8uA8JQUaqOr8+1gQEpEgLb50Php8SoF3S1zI53rNnry2OMXLzy1i7BERrdmDTENQ3TTbRiM6XitzpfuSzBAO7CQmpbChgg4FxwA+kRdrXSy+pBL/WkrhET7CHfsAYWeqWWBNZ2KNIuo5B1CVMm/aBbx6dP2rHZSEg1a4BqPb7JwHJfnseJiExRIVR6ajZdeaSp2Lm0pExq8UQw1Hkw3ZbkBKQCdh1YGlFjFWhDbn+pfjWWxim9n0tTkCQF2QF35ABAXm/2X27dfNeIA0IJke49kbQEy7W3yVAPS5vfdBeyIR6xRVXSxbz8SczvXRch2pagjZqxG4HCdCMyLLJRx997JV/992DRqyux0+83SyrfugAAA6ZSURBVEvQLtHFmBCkBkIBAcJG2/2IAIeAknvINNYERPfVLQ9DZwkgS+71VOcgRUL6UIebV/rvEhAQPAnuc9B1gPzpUGoCIjhDH2697Y6k+9N9dY913/3Imc4Pw1EJeG76mhCQIBsgYFKC39Ig6rrvvgckSxLudVtRPS4LAcHbZ9TsFor9xpxP/UljGXJ7Gi7BZE9AoI2Qn8xI2MECHx7QUkh4a2H8a7ggFPITEoIYaSAngyfV2iJjFtabE+6Pf5wOH6gD+UAe/QE7ZCzUBAdbBAmnn3GWrfexoU9Ikt2lguUMBEzgohbXxpiwY3D7s2PHDltGExt5CxbhLIalWoMia/kgJ67djp78QYzQJrZOSoDmRe/uwdZK5NFpU6dOS+qr23f3XBMQ2By41/U5hJsETYAkD2xGVq781kCTAk2OkDApI7HklziIgGA5SAK2k0p+v1gbXpaagIhdEPrqZ2Dq119Ju+CCi+UWLWGWdL8Yz1wCbIl0HiEgGm/6uiYgfkbXyHvPvfdJ9SQg+QhJv7JJgjPkxpN+91DutKQxDDn5wHjla4Ra7jHPpH1XmOmJJ5djbxZqdg5m/XToRGPsLhiQCGgyQCJW/t5g5q4+YO1AkAYtiJAQEI0X5sQ/OPbaZ/XWYVmfV2vNHWNqzZc/F34brtzzbbff6fX6hRdG2wkbAhJBbDD0xDxo0EM2j5AHCEapS8cz1Xo8VPy4JgIQuwxwrtXZsl4vghZERNeHY2gYRIis+e47e11/J0XsUMSgc9GiL2weIVC4p0z8RbjtagKSrrxeAoDglLqgsZElFm/AUxxIOYllXFwNCJaaJKTaAox6tP1NqQmIPDcQLrmnTOMbe/eRWzSwO0pVDsbHEqBR0nmlDyQgwS9cZdOAyCSeJEBJQjLeFZI0dhEgH3juhdiGK/jRMXbUgNzk41VV15fPsd/bqJ6csj3GJCcaEPFQKpoPLJPAMyo0GzBOPW1I3NHYjn+brL0HjEzxg+dUWY45d2jcgRlsPRBQl949g7asK9Tm2TXb/gblhyCSt3B564PWAmHup/O8CVzIgxhgyq6PIFW1FhpYi4cAljDg7ntsvad06y5J1iGV3qL7xhtvem3rvstykKjRscSDoIWNECgR1rJF128nj6476FgTEGiHgvIhXcYOfdJCXi9BQBDCRgSGlbhPaEXw5q7tHNw2gggIdotI8Nv5oevR2hndt0xtQLTWK9ttuEIK0ddsnY5pAizPVN+XPtZaMtj96GskIMHEQ8ap7AQEk3ySICUJSUtCksYsIuQDz7tQjsg0QXDr1NfKcVxoR2Qy6du42SU7jrftbTL/GR93sY4Pzd32Vq15cGKtefC9WrNrf5NZ8VuD5xUVnk+t+/Yn4i7Y4SkVmpDHptZZZ2WoD3YmMHa1ZKeZ9CBdJoxCxGKgCQGFr71K0EaAIuhARHr0uEyyGNGa+PVDhCZ8hMBBFAKEgBZ+ohVYtWq10UaOojVx69Vr/HBKJar96dNneGOCpQgJIDlClkRr4taZ7lwTEGh2gvJrWwUtKLVjNfQr6N7EyBZ53DZkLHW9yIOlKAmpnHjBxkQH/Qy0IzJ32UL3Q/vwyJaA7Ny502seyxi63nTH2rYG+EmlzdTbvL9ZkeiQjgQkIgQEAiJJoJKEBJKQpLGKEPkQMqCXYWbNmRt4r5I/XQx37mLcirrT5S/29UK7YpfZFMRAjFH/u6/Jul0/tfn7LnPWxD1eYnkGWhGEpT832O230HDATwj8hWDL7dfr435B4HQMrtzvHlfr7aKRLb9WC9LccLpJO5vrQg5QNbQeCBB4uo57/+/g2rfsOkE+v90EUk48VoLYCMlx30rF4RPekH/9Ne5MbP/+/QltS32INUGCvwwJ2D0j+eBqW4LOk63QlPo0AQFJEDsYuS7xSy8dJAPa+PaZZ56T7lhfEpJfx7C/0UFfw3EQAdG7hkDmgog2fF3ooAkIBLoI51RjL2QR9WQ7lvKcUTbVDqGFixZZOw9ojDQBxnKgBLivd8cH57gPsT1CXuxK0vnkHrkEE0xEQqEBEWGQJFhJQpIEadIYRZB84HkX8mN0ekkHJAR1C6bKFRfjY3SY5CwBaf5Gy7AP66wGA8sr476IO+Oa9nW96fViXBOCvMuaCQjKTlhcb8kGlmG+/T3+FV04NQMhAYm5fUytXYYBgdHkA2X1xJrvsV4ekUnaXVrBEpZckxhCIlXb+u1cyrhLK/iehwTJA+dPqeqVZQ7J77e0IvYOkgdtBDmOgkYCPiBAju64c0BS25qAoB4/TQrsL3Rb+j41SfATfrBd0bYjaMO9/yACAqErS2goBy2FW1YvhyEPgiYgyK8FvJ+GArt/dPAjIEj7668tBqRPf28F9etdU6jHz1sp/LNIwD3p7dLa6R3GGa7U3fuEzY8ElHf7IM/H7xmgLr3UI8uRbhs0Qu1yQkkn8yQBSxLijX/S2ESUfAgpeHvsBE9rAeIwfMRI714lT7rYJR+oM12ZUl0vpDOygxNd/GjTjkZrbIqv4cLAdMP2Rqv1uKR5Gy2MUEEilv/SYAkJjt9ZXG9OfSieHwaqWGrp8VTcrTv8g2A5ZuaquBYFGhNNQtyJMd9zsfGQ+xIX6Lpe7aEU+RYs+DxJCOj8cEnuBqj7dR5XgCJ/Kj8PKCs2HlK3uIHX9WqBhXxYAtDX9TGWfyRgucYVzi4Bkfqw7RX2LdB2aBIAOxVdP45lGQhlIQDhGA32JBDs7tgjj1s+iIAgnxbcKAt7mA8/nGGXZ6Bt0H3DdQT3HrFcIQGCGj5YsKto8uSpxn3uyOcSEE1icR3Lae49aG+2yANvsuPGT7BeW2F0LAQB11xfIcCJaNFwHeMBIog68X0d15OpH4mS+klAIqIBEcGQJGhJQpKXqCJOPuRZ66UYkBAsx2TycTrkQV5ZdkGM7b1Sbxjiowv4QTpMgghCDBava7C7W2RXy5//bbQ2HziHa3UQEQQhINBqvPV5fMstNCbfrG+w342xBOTxuIMyEJBnZyY6ILOV+Agod7LP9ly2yEr9foaCeqkG+fy0BW67Wm3v2i9IXlmqQZ0QEkHLCJJfbxNGGT+VvF6qQZ5Zs2YnCUSpz9U+uJoSTUBg6JkqYLnJLY929PKMX3ksQekdLdI3iVMREOQB4UgVsHQEZ3MSXAKC543ll1RBY8QlIPDZooPsdJL+SyxLfDqve4wdVn5bdbH0pZdY3HJyDvfq0p6OSUCCiYeMU6iWYLTQcEnITX1uCZVw0X0t9jHuXXtKxdgUu81S1Q91tEtChIgMemiI0a7aQToGDLjXTJ76QQLxEPKBukrV70zaadcu/ml3+WfLJ5bJDs7DRLMBo1NoOs4YErPfe0GeJz+qs8QEBqcgK0vWNZgbXoqTEdh9wAkZXLLjGzHY9QICAsNU1NP94Zh5+pP4rhhoR2ALIiGfvvuVxbcuJARpC/A8JeCt2hVifvXCs6UEHPvl0V468Vbsl0enaUdpqNtPWCG/3vXR+6a+gfXCQZpoCWCDoNvCsdYO4E0cn3/3E4R4QwfxccvLOXZo+Gk7QMCg/tcu7KWMxKJBAaGTNDeGEzYhKjLmiLFzCd/UwXdhJPg9O9ihYAlFBLXkxTjiuzW4bwn62z/SD/naMMgUDJUl3Y2h/dG7YqROkKR0flpAlPA83D6iDoyNa/eh25YyeseUvq61OCCd+poc33XX3dJdS/okvVLi0BIQTPAuCclk0q/EPJVKPvSzcpdjtGYj3XGYll30PeG4RctWvhNLthOIzEJCCrbtabJaDmg8QESufD5mftysGENzgbWbGuwSDQiHX+j5dOISzBsL6i3BEU2LlMm2v8yf+u0Pb9fiRyTTsUKZPn1vsT84RMu0HHyewO03jCzF/0mmZdPlA7GA8IeghF1KLtvPQbLwMUJsl8ZOo3Rt6utw74/yOs3vGHnwPRf0E2MRZNjrVxZp0JLhPqGFgx0RdjsF5WV6auzr8Qk1AcEELm//Yf64nCt0Cn0urtsrXQsE41E/bUgQAUHeMBicpnrex7RpX5CJSogAtB9CQoZ+UGeNSrHcAi0G3Kg/Pr3OvLe03ry7tN68s6TeakTgnAyajudm1dk0GKPihyUZlIERKuxIsHTz/aY4UZHvzki7etLgceYTLMeKY0UMBGMg9AQk1eTOa6U1EC7VeGOpBcalIBjabfuWf7batBdfeiUjO5FS9TdVO506HV8UAgKbju17m+yXcU9+sMY6IDt9SMycNLDGdL2vxnS5J/7DtlvRkpz4QDwNMcpg+y2ICwgKzmX5pdjbcDkhB0/IHBuOTTVhgASkxLt8UgkrXqtMQlUILYhoIiQGAUHYXdNkNRkD36s1+MEJ2eD3a83zs+vMlOX1ZvmvDdbnB+w/4CcE7tdvfbPWfj0XWhFoT3q/XGsmLq23u2JkC67eAYN2qmlS5L2SBBADpcEACQgJSKgMNyuRhHXq3DWjdepUk16cbsQNUIUcCAmRa5nGMGTFR+xk5wzsPSRI3XIucaq+8VppJmuOM8e50jBAAkICQgJSAgzkuyNGiABikAQhCiAhsjNG0hHDhgPEArH8kM+17ZB6kS51Sj1yDXGlTXy8HwpzYqD8GCABKYHwqcS3et5T9stF2Vrec4Is/wTJZ8BnQAwUDwMkICQg1ICUEAO5bFPkBFi8CZBjy7ElBsqHARKQEgofag2y1xpU2ph17HRc3vYgnDDLN2Fy7Dn2xEDhMEACQgJCDUiJMdC+Y5eCOSjjZFi4yZBjybEkBkqLARKQEgufSnuj5/3kptUBCcnEgyMnxNJOiBxvjjcxUDoMkICQgFADUiYMYDmGNiGlm+woWDjWxEC4MEACUibhQ81BbpqDShw37o4J16RIIcXnQQyUBgMkICQg1ICEAAPwE8IlmdJMehQuHGdiIBwYIAEJgfCpxLd63lP2Gh54TC2E23ZOruGYXPkc+ByIgdQYIAEhAaEGJGQYwAfsQERatEz/mXFOcKknOI4Px4cYCC8G/h85gP0KIoUsDgAAAABJRU5ErkJggg==;" vertex="1" parent="WIyWlLk6GJQsqaUBKTNV-1">
          <mxGeometry x="-150" y="252.64000000000001" width="334" height="77.36" as="geometry" />
        </mxCell>
      </root>
    </mxGraphModel>
  </diagram>
</mxfile>
